<?xml version="1.0" encoding="UTF-8" standalone="no"?>
<!-- Created with Inkscape (http://www.inkscape.org/) -->

<svg
   xmlns:dc="http://purl.org/dc/elements/1.1/"
   xmlns:cc="http://creativecommons.org/ns#"
   xmlns:rdf="http://www.w3.org/1999/02/22-rdf-syntax-ns#"
   xmlns:svg="http://www.w3.org/2000/svg"
   xmlns="http://www.w3.org/2000/svg"
   xmlns:sodipodi="http://sodipodi.sourceforge.net/DTD/sodipodi-0.dtd"
   xmlns:inkscape="http://www.inkscape.org/namespaces/inkscape"
   width="744.09448"
   height="1052.3622"
   id="svg2"
   version="1.1"
   inkscape:version="0.48.4 r9939"
   sodipodi:docname="FrontPagePortrait.svg">
  <defs
     id="defs4" />
  <sodipodi:namedview
     id="base"
     pagecolor="#ffffff"
     bordercolor="#666666"
     borderopacity="1.0"
     inkscape:pageopacity="0.0"
     inkscape:pageshadow="2"
     inkscape:zoom="0.7"
     inkscape:cx="34.457835"
     inkscape:cy="524.02959"
     inkscape:document-units="mm"
     inkscape:current-layer="layer3"
     showgrid="false"
     inkscape:window-width="1680"
     inkscape:window-height="1000"
     inkscape:window-x="0"
     inkscape:window-y="0"
     inkscape:window-maximized="1"
     showguides="false"
     inkscape:guide-bbox="true"
     units="mm"
     inkscape:snap-grids="false"
     inkscape:snap-bbox="true"
     inkscape:snap-bbox-midpoints="true"
     inkscape:snap-global="true"
     inkscape:snap-to-guides="true">
    <sodipodi:guide
       orientation="0,1"
       position="-35.433071,350.7874"
       id="guide3069" />
    <sodipodi:guide
       orientation="0,1"
       position="-35.433071,701.5748"
       id="guide3071" />
    <inkscape:grid
       units="mm"
       empspacing="10"
       visible="true"
       enabled="true"
       snapvisiblegridlinesonly="true"
       type="xygrid"
       id="grid3073" />
    <sodipodi:guide
       orientation="0,1"
       position="-35.433071,526.1811"
       id="guide3079" />
    <sodipodi:guide
       orientation="0,1"
       position="-35.433071,175.3937"
       id="guide3081" />
    <sodipodi:guide
       orientation="0,1"
       position="-35.433071,876.9685"
       id="guide3083" />
    <sodipodi:guide
       orientation="0,1"
       position="-35.433071,789.27165"
       id="guide3085" />
    <sodipodi:guide
       orientation="0,1"
       position="-35.433071,613.87795"
       id="guide3087" />
    <sodipodi:guide
       orientation="0,1"
       position="-35.433071,87.69685"
       id="guide3089" />
  </sodipodi:namedview>
  <metadata
     id="metadata7">
    <rdf:RDF>
      <cc:Work
         rdf:about="">
        <dc:format>image/svg+xml</dc:format>
        <dc:type
           rdf:resource="http://purl.org/dc/dcmitype/StillImage" />
        <dc:title />
      </cc:Work>
    </rdf:RDF>
  </metadata>
  <g
     inkscape:groupmode="layer"
     id="layer3"
     inkscape:label="Deckblatt"
     transform="translate(0,-2.5390623e-6)"
     style="display:inline">
    <g
       id="g3055"
       transform="translate(93.781433,248.90889)">
      <text
         sodipodi:linespacing="125%"
         id="text3047"
         y="434.14883"
         x="279.31418"
         style="font-size:16px;font-style:normal;font-variant:normal;font-weight:normal;font-stretch:normal;text-align:center;line-height:125%;letter-spacing:2.13999987px;word-spacing:0px;text-anchor:middle;fill:#000000;fill-opacity:1;stroke:none;font-family:EB Garamond 12 All SC;-inkscape-font-specification:EB Garamond 12 All SC"
         xml:space="preserve"><tspan
           y="434.14883"
           x="280.38419"
           id="tspan3049"
           sodipodi:role="line">baldassare</tspan></text>
      <text
         sodipodi:linespacing="125%"
         id="text3051"
         y="452.66589"
         x="277.94019"
         style="font-size:12px;font-style:normal;font-variant:normal;font-weight:normal;font-stretch:normal;text-align:center;line-height:125%;letter-spacing:5.19000053px;word-spacing:0px;text-anchor:middle;fill:#d40000;fill-opacity:1;stroke:none;font-family:EB Garamond;-inkscape-font-specification:EB Garamond"
         xml:space="preserve"><tspan
           style="font-size:20px;letter-spacing:5.19000053px;fill:#d40000"
           y="452.66589"
           x="280.53519"
           id="tspan3053"
           sodipodi:role="line">GALUPPI</tspan></text>
    </g>
    <text
       xml:space="preserve"
       style="font-size:12px;font-style:normal;font-variant:normal;font-weight:normal;font-stretch:normal;text-align:center;line-height:110.00000238%;letter-spacing:0px;word-spacing:0px;text-anchor:middle;fill:#000000;fill-opacity:1;stroke:none;font-family:EB Garamond;-inkscape-font-specification:EB Garamond"
       x="372.3208"
       y="412.09424"
       id="text3061"
       sodipodi:linespacing="110%"><tspan
         sodipodi:role="line"
         x="372.3208"
         y="412.09424"
         style="font-size:14px;font-style:normal;line-height:110.00000238%;-inkscape-font-specification:EB Garamond"
         id="tspan3077">Magnificat</tspan><tspan
         sodipodi:role="line"
         x="372.3208"
         y="427.49423"
         style="font-size:14px;font-style:normal;line-height:110.00000238%;-inkscape-font-specification:EB Garamond"
         id="tspan3011" /><tspan
         sodipodi:role="line"
         x="372.3208"
         y="442.89423"
         style="font-size:14px;font-style:normal;line-height:110.00000238%;-inkscape-font-specification:EB Garamond"
         id="tspan3013">BurG II/61</tspan></text>
    <text
       xml:space="preserve"
       style="font-size:14px;font-style:normal;font-variant:normal;font-weight:normal;font-stretch:normal;text-align:center;line-height:125%;letter-spacing:1.84000015px;word-spacing:0px;text-anchor:middle;fill:#000000;fill-opacity:1;stroke:none;font-family:EB Garamond 12 All SC;-inkscape-font-specification:EB Garamond 12 All SC"
       x="372.06738"
       y="967.76636"
       id="text3099"
       sodipodi:linespacing="125%"><tspan
         sodipodi:role="line"
         x="372.9874"
         y="967.76636"
         id="tspan3023">full score</tspan></text>
    <text
       sodipodi:linespacing="110%"
       id="text3021"
       y="876.96851"
       x="371.86884"
       style="font-size:12px;font-style:normal;font-variant:normal;font-weight:normal;font-stretch:normal;text-align:center;line-height:110.00000238%;letter-spacing:0px;word-spacing:0px;text-anchor:middle;fill:#000000;fill-opacity:1;stroke:none;font-family:EB Garamond;-inkscape-font-specification:EB Garamond"
       xml:space="preserve"><tspan
         id="tspan3032"
         style="font-size:14px;font-style:normal;line-height:110.00000238%;-inkscape-font-specification:EB Garamond"
         y="876.96851"
         x="371.86884"
         sodipodi:role="line">S (Solo), S, A, T, B (Coro), 2 cor, 2 vl, vla, b, org</tspan></text>
    <g
       style="font-size:72px;font-style:normal;font-variant:normal;font-weight:normal;font-stretch:normal;text-align:center;line-height:125%;letter-spacing:0px;word-spacing:0px;text-anchor:middle;fill:none;stroke:#808080;stroke-width:0.62362206;stroke-miterlimit:4;stroke-dasharray:none;font-family:EB Garamond;-inkscape-font-specification:EB Garamond"
       id="text3015"
       transform="translate(9.2793412,146.32606)">
      <path
         d="m 198.65965,128.78848 -1.224,-23.76 c -0.216,-4.104 0.576,-5.544004 2.808,-6.480003 2.88,-1.223999 3.456,-1.440001 3.456,-2.16 0,-0.719999 -0.288,-1.224 -1.152,-1.224 -2.304,0 -7.272,0.72 -9.144,0.72 -1.872,0 -2.88,2e-6 -3.672,1.656 l -11.304,23.472003 c -1.368,2.73599 -1.656,1.584 -2.232,0.072 l -8.424,-20.664 c -1.368,-3.24 -2.592,-4.536003 -4.536,-4.536003 -3.312,0 -5.4,-0.36 -7.992,-0.36 -0.864,0 -2.448,-0.072 -2.448,1.008 0,1.151999 2.592,2.232001 3.888,3.456 1.8,1.656003 2.952,3.024003 2.304,8.136003 l -2.448,19.152 c -0.504,3.59999 -1.728,6.48 -4.176,7.56 -1.656,0.72 -3.96,1.08 -3.96,2.16 0,0.72 1.584,1.152 2.376,1.224 0.504,0 3.24,-0.432 6.624,-0.432 3.456,0 6.624,0.432 7.128,0.432 0.792,-0.072 2.304,-0.504 2.304,-1.224 0,-1.08 -2.376,-1.44 -3.96,-2.16 -1.872,-0.864 -2.376,-4.392 -2.232,-6.336 l 1.224,-20.088 c 0.072,-1.8 0.72,-2.808 1.8,-0.072 l 8.856,22.68 c 1.512,3.88799 2.088,4.464 2.808,4.464 0.648,0 3.672,-6.192 3.96,-6.84 l 9.72,-22.32 c 0.504,-1.296 1.8,-1.584 1.872,-0.216 l 0.936,22.68 c 0.144,2.66399 -0.936,4.968 -3.384,6.048 -1.584,0.72 -3.96,1.08 -3.96,2.16 0,0.72 1.584,1.152 2.376,1.224 0.504,0 4.752,-0.432 8.136,-0.432 3.456,0 8.208,0.432 8.712,0.432 0.792,-0.072 2.304,-0.504 2.304,-1.224 0,-1.08 -2.376,-1.44 -3.96,-2.16 -2.448,-1.08 -3.24,-3.38401 -3.384,-6.048"
         style="fill:none;stroke:#808080;stroke-width:0.62362206;stroke-miterlimit:4;stroke-dasharray:none"
         id="path3020"
         inkscape:connector-curvature="0" />
      <path
         d="m 223.10365,118.49248 5.04,-14.328 c 0.288,-0.72 0.576,-0.936 0.792,-0.216 l 4.392,13.464 c 0.72,2.30399 0.648,2.592 -0.792,2.592 l -8.784,0 c -1.296,0 -1.08,-0.36 -0.648,-1.512 m 20.52,19.296 c 2.376,0 4.968,0.432 6.624,0.432 1.368,0 2.088,-0.36 2.088,-1.152 0,-0.72 -0.648,-1.44 -2.88,-2.232 -3.528,-1.296 -4.32,-3.24001 -6.408,-9.072 l -9.504,-26.856003 c -1.008,-2.807997 -1.44,-5.184 -2.664,-5.184 -0.432,0 -1.728,2.016 -3.096,2.16 -0.792,0.072 -0.792,1.008003 -2.016,4.104 l -11.016,30.456003 c -1.08,2.95199 -1.008,3.312 -3.384,4.392 -1.584,0.72 -3.96,1.08 -3.96,2.16 0,0.792 1.008,1.224 2.376,1.224 1.08,0 2.736,-0.432 4.536,-0.432 1.368,0 4.536,0.432 5.904,0.432 1.8,0 2.52,-0.432 2.52,-1.224 0,-0.72 -0.792,-1.512 -2.664,-2.016 -2.088,-0.576 -2.016,-1.728 -1.584,-3.024 l 2.736,-7.848 c 0.288,-0.72 0.792,-0.792 1.152,-0.792 l 12.024,0 c 0.576,0 0.936,0.216 1.152,0.864 l 2.088,6.84 c 0.36,1.224 0.504,2.592 -2.088,3.816 -1.584,0.72 -3.888,1.08 -3.888,2.16 0,0.792 1.368,1.224 2.304,1.224 2.16,0 4.89601,-0.432 9.648,-0.432"
         style="fill:none;stroke:#808080;stroke-width:0.62362206;stroke-miterlimit:4;stroke-dasharray:none"
         id="path3022"
         inkscape:connector-curvature="0" />
      <path
         d="m 282.82315,94.300477 c -14.54398,0 -26.856,10.080013 -26.856,24.480003 0,11.44799 10.87201,21.024 22.32,21.024 7.41599,0 21.024,-2.304 21.024,-3.96 0,-0.648 -1.944,-1.584 -1.944,-3.24 l 0,-7.56 c 0,-1.656 2.232,-2.52 3.24,-2.952 0.936,-0.36 1.728,-1.224 1.728,-1.656 0,-0.864 -0.504,-1.44 -1.44,-1.44 -1.8,0 -3.888,0.288 -6.264,0.288 -2.448,0 -7.848,-0.288 -9.72,-0.288 -0.72,0 -1.512,0.36 -1.512,1.152 0,1.08 1.224,1.296 3.384,2.088 1.584,0.576 3.888,1.44 3.888,2.952 l 0,8.712 c 0,1.224 -5.472,2.736 -9.288,2.736 -10.36799,0 -17.352,-9.93601 -17.352,-20.376 0,-9.79199 6.76801,-18.720003 16.344,-18.720003 5.616,0 11.016,1.800005 13.68,6.840003 1.008,1.944 1.8,2.88 2.376,2.88 0.648,0 1.152,-0.432 1.152,-1.08 0,-2.016 -0.576,-5.976 -0.864,-7.056003 -0.216,-0.791999 -0.432,-2.16 -1.224,-2.376 -4.82399,-1.295999 -5.97601,-2.448 -12.672,-2.448"
         style="fill:none;stroke:#808080;stroke-width:0.62362206;stroke-miterlimit:4;stroke-dasharray:none"
         id="path3024"
         inkscape:connector-curvature="0" />
      <path
         d="m 315.86665,128.78848 0,-18.36 c 0,-1.584 0.576,-1.512 1.368,-0.72 l 22.392,24.84 c 2.736,3.02399 5.328,4.32 6.12,4.32 0.72,0 1.44,-0.144 1.44,-0.864 0,-1.944 -0.216,-2.52001 -0.216,-5.904 l 0,-28.728 c 0,-4.175999 1.87201,-4.176004 5.976,-5.328003 0.648,-0.216 1.08,-0.576001 1.08,-1.224 0,-0.863999 -1.44,-1.296 -2.52,-1.296 -2.448,0 -3.96,0.36 -6.48,0.36 -2.592,0 -3.744,-0.36 -6.552,-0.36 -1.08,0 -2.52,0.432001 -2.52,1.296 0,0.647999 0.504,1.008 1.152,1.224 4.104,1.151999 5.904,1.152004 5.904,5.328003 l 0,22.032 c 0,1.44 -1.08,1.08 -2.016,0 l -23.976,-26.928003 c -0.72,-0.791999 -2.232,-2.592 -3.816,-2.592 l -7.56,0 c -1.008,0 -1.512,0.216001 -1.512,0.792 0,1.295999 2.736,1.800002 4.32,3.456003 l 2.664,2.88 c 0.792,0.936 1.008,3.528 1.008,6.984 l 0,18.792 c 0,2.73599 -0.936,4.968 -3.384,6.048 -1.584,0.72 -3.96,1.08 -3.96,2.16 0,0.72 1.584,1.152 2.376,1.224 0.504,0 3.24,-0.432 6.624,-0.432 3.456,0 6.624,0.432 7.128,0.432 0.792,-0.072 2.304,-0.504 2.304,-1.224 0,-1.08 -2.376,-1.44 -3.96,-2.16 -2.448,-1.08 -3.384,-3.31201 -3.384,-6.048"
         style="fill:none;stroke:#808080;stroke-width:0.62362206;stroke-miterlimit:4;stroke-dasharray:none"
         id="path3026"
         inkscape:connector-curvature="0" />
      <path
         d="m 373.36203,95.524477 c -2.448,0 -5.40001,0.36 -7.92,0.36 -2.592,0 -5.18401,-0.36 -7.992,-0.36 -1.08,0 -2.52,0.432001 -2.52,1.296 0,0.647999 0.504,1.008 1.152,1.224 4.10399,1.151999 5.904,1.224004 5.904,5.328003 l 0,26.28 c 0,2.66399 -0.93601,4.104 -3.384,5.184 -1.584,0.72 -3.96,1.08 -3.96,2.16 0,0.72 1.584,1.152 2.376,1.224 0.504,0 4.752,-0.432 8.136,-0.432 3.45599,0 8.208,0.432 8.712,0.432 0.792,-0.072 2.304,-0.504 2.304,-1.224 0,-1.08 -2.37601,-1.44 -3.96,-2.16 -2.448,-1.08 -3.384,-2.52001 -3.384,-5.184 l 0,-26.28 c 0,-4.103999 1.872,-4.176004 5.976,-5.328003 0.648,-0.216 1.08,-0.576001 1.08,-1.224 0,-0.863999 -1.44,-1.296 -2.52,-1.296"
         style="fill:none;stroke:#808080;stroke-width:0.62362206;stroke-miterlimit:4;stroke-dasharray:none"
         id="path3028"
         inkscape:connector-curvature="0" />
      <path
         d="m 381.48678,138.22048 c 0.504,0 4.752,-0.432 8.136,-0.432 3.45599,0 8.208,0.432 8.712,0.432 0.792,-0.072 2.304,-0.504 2.304,-1.224 0,-1.08 -2.37601,-1.44 -3.96,-2.16 -2.448,-1.08 -3.384,-2.52001 -3.384,-5.256 l -0.072,-9.864 c -0.072,-1.296 0.36,-1.728 1.728,-1.728 l 6.984,0 c 1.51199,0 2.016,0.72 2.52,1.512 0.432,0.72 1.368,2.736 2.304,2.736 0.72,0 0.936,-1.152 0.936,-1.872 0,-0.792 -0.072,-3.024 -0.072,-4.104 0,-1.08 0.288,-3.6 0.288,-4.176 0,-0.864 -0.144,-1.44 -0.792,-1.44 -0.792,0 -1.44,1.08 -2.232,1.8 -1.296,1.224 -2.08801,2.016 -4.392,2.016 l -5.616,0 c -1.008,0 -1.656,-0.504 -1.656,-2.232 l 0.072,-11.88 c 0,-0.936002 0.288,-1.512003 2.232,-1.512003 l 7.992,0 c 3.45599,0 5.256,1.152001 5.832,2.376003 0.648,1.44 1.728,2.736 2.592,2.736 0.864,0 1.152,-1.008 1.152,-1.872 0,-0.792 -0.36,-4.752004 -0.648,-5.904003 -0.144,-0.647999 -0.72,-1.008 -1.872,-1.008 -1.296,0 -5.54401,0.36 -8.568,0.36 l -20.088,0 c -1.512,0 -2.52,0.432001 -2.52,1.296 0,0.647999 0.504,1.008 1.152,1.224 4.10399,1.151999 5.904,1.224004 5.904,5.328003 l 0,26.28 c 0,2.66399 -0.93601,4.104 -3.384,5.184 -1.584,0.72 -3.96,1.08 -3.96,2.16 0,0.72 1.584,1.152 2.376,1.224"
         style="fill:none;stroke:#808080;stroke-width:0.62362206;stroke-miterlimit:4;stroke-dasharray:none"
         id="path3030"
         inkscape:connector-curvature="0" />
      <path
         d="m 432.98703,95.524477 c -2.448,0 -5.40001,0.36 -7.92,0.36 -2.592,0 -5.18401,-0.36 -7.992,-0.36 -1.08,0 -2.52,0.432001 -2.52,1.296 0,0.647999 0.504,1.008 1.152,1.224 4.10399,1.151999 5.904,1.224004 5.904,5.328003 l 0,26.28 c 0,2.66399 -0.93601,4.104 -3.384,5.184 -1.584,0.72 -3.96,1.08 -3.96,2.16 0,0.72 1.584,1.152 2.376,1.224 0.504,0 4.752,-0.432 8.136,-0.432 3.45599,0 8.208,0.432 8.712,0.432 0.792,-0.072 2.304,-0.504 2.304,-1.224 0,-1.08 -2.37601,-1.44 -3.96,-2.16 -2.448,-1.08 -3.384,-2.52001 -3.384,-5.184 l 0,-26.28 c 0,-4.103999 1.872,-4.176004 5.976,-5.328003 0.648,-0.216 1.08,-0.576001 1.08,-1.224 0,-0.863999 -1.44,-1.296 -2.52,-1.296"
         style="fill:none;stroke:#808080;stroke-width:0.62362206;stroke-miterlimit:4;stroke-dasharray:none"
         id="path3032"
         inkscape:connector-curvature="0" />
      <path
         d="m 466.67178,94.300477 c -14.18399,0 -26.064,9.792013 -26.064,23.976003 0,12.81598 12.52801,20.952 24.696,20.952 4.03199,0 9.072,-0.792 11.952,-1.8 1.79999,-0.648 2.16,-1.15201 3.312,-3.528 0.648,-1.368 2.88,-6.264 2.88,-6.84 0,-1.296 -0.576,-2.016 -1.152,-2.016 -0.576,0 -1.008,0.144 -1.296,0.576 -3.816,5.39999 -5.47201,10.44 -12.744,10.44 -11.44799,0 -19.584,-9.79201 -19.584,-20.808 0,-9.93599 7.27201,-17.712003 16.56,-17.712003 5.11199,0 12.024,1.872003 13.032,5.040003 0.936,3.02399 1.8,4.536 2.88,4.536 0.792,0 1.296,-0.792 1.296,-2.016 0,-3.96 -0.50401,-7.776003 -2.16,-7.920003 -1.656,-0.144 -8.13601,-2.88 -13.608,-2.88"
         style="fill:none;stroke:#808080;stroke-width:0.62362206;stroke-miterlimit:4;stroke-dasharray:none"
         id="path3035"
         inkscape:connector-curvature="0" />
      <path
         d="m 503.22865,118.49248 5.04,-14.328 c 0.288,-0.72 0.576,-0.936 0.792,-0.216 l 4.392,13.464 c 0.72,2.30399 0.648,2.592 -0.792,2.592 l -8.784,0 c -1.296,0 -1.08,-0.36 -0.648,-1.512 m 20.52,19.296 c 2.376,0 4.968,0.432 6.624,0.432 1.368,0 2.088,-0.36 2.088,-1.152 0,-0.72 -0.648,-1.44 -2.88,-2.232 -3.528,-1.296 -4.32,-3.24001 -6.408,-9.072 l -9.504,-26.856003 c -1.008,-2.807997 -1.44,-5.184 -2.664,-5.184 -0.432,0 -1.728,2.016 -3.096,2.16 -0.792,0.072 -0.792,1.008003 -2.016,4.104 l -11.016,30.456003 c -1.08,2.95199 -1.008,3.312 -3.384,4.392 -1.584,0.72 -3.96,1.08 -3.96,2.16 0,0.792 1.008,1.224 2.376,1.224 1.08,0 2.736,-0.432 4.536,-0.432 1.368,0 4.536,0.432 5.904,0.432 1.8,0 2.52,-0.432 2.52,-1.224 0,-0.72 -0.792,-1.512 -2.664,-2.016 -2.088,-0.576 -2.016,-1.728 -1.584,-3.024 l 2.736,-7.848 c 0.288,-0.72 0.792,-0.792 1.152,-0.792 l 12.024,0 c 0.576,0 0.936,0.216 1.152,0.864 l 2.088,6.84 c 0.36,1.224 0.504,2.592 -2.088,3.816 -1.584,0.72 -3.888,1.08 -3.888,2.16 0,0.792 1.368,1.224 2.304,1.224 2.16,0 4.89601,-0.432 9.648,-0.432"
         style="fill:none;stroke:#808080;stroke-width:0.62362206;stroke-miterlimit:4;stroke-dasharray:none"
         id="path3037"
         inkscape:connector-curvature="0" />
      <path
         d="m 551.93215,101.71648 0,27.936 c 0,2.66399 -0.936,4.104 -3.384,5.184 -1.584,0.72 -3.96,1.08 -3.96,2.16 0,0.72 1.584,1.152 2.376,1.224 0.504,0 4.752,-0.432 8.136,-0.432 3.456,0 8.208,0.432 8.712,0.432 0.792,-0.072 2.304,-0.504 2.304,-1.224 0,-1.08 -2.376,-1.44 -3.96,-2.16 -2.448,-1.08 -3.384,-2.52001 -3.384,-5.184 l 0,-27.936 c 0,-0.72 0.144,-2.232003 0.864,-2.232003 l 11.16,0 c 1.008,0 1.944,0.936003 2.592,2.016003 0.792,1.368 1.872,3.24 2.592,3.24 0.864,0 1.008,-0.576 1.008,-1.656 0,-0.792 -0.144,-3.240005 -0.144,-4.968003 0,-1.583998 0.288,-2.448001 0.288,-3.096 0,-0.575999 -0.432,-1.296 -1.296,-1.296 -0.864,0 -1.224,0.576001 -2.088,1.08 -1.296,0.719999 -2.448,1.224 -5.04,1.224 l -25.128,0 c -3.95999,0 -5.76,-2.16 -6.84,-2.16 -0.72,0 -1.224,0.864001 -1.224,1.8 0,0.719999 0.144,2.088001 0.144,3.24 0,2.303993 -0.36,2.880003 -0.36,4.536003 0,0.648 0.36,1.656 1.296,1.656 1.008,0 1.512,-2.016 2.304,-3.456 0.72,-1.296 1.224,-2.160003 3.096,-2.160003 l 8.784,0 c 0.72,0 1.152,0.792003 1.152,2.232003"
         style="fill:none;stroke:#808080;stroke-width:0.62362206;stroke-miterlimit:4;stroke-dasharray:none"
         id="path3039"
         inkscape:connector-curvature="0" />
    </g>
  </g>
</svg>
